<svg width="130" height="138" viewBox="0 0 130 138" fill="none" xmlns="http://www.w3.org/2000/svg">
<rect width="71.8133" height="48.2669" rx="24.1335" transform="matrix(0.829172 0.558994 -0.530343 0.847783 25.598 56.0581)" fill="#7789B8"/>
<path d="M76.0638 4C102.986 4 125.064 26.7006 125.064 55.0205C125.064 83.3402 102.986 106.04 76.0638 106.04C49.1417 106.04 27.0641 83.3402 27.0638 55.0205C27.0638 26.7006 49.1416 4 76.0638 4Z" stroke="#7789B8" stroke-width="8"/>
<ellipse cx="76.0638" cy="55.0201" rx="42" ry="43.6008" stroke="#7789B8" stroke-width="2" stroke-linecap="round" stroke-linejoin="round" stroke-dasharray="6 6"/>
<mask id="path-4-inside-1_4741_44" fill="white">
<path d="M54.0635 19.7241C56.8249 19.7241 59.0635 21.9627 59.0635 24.7241V74.9624C59.0635 76.627 59.8922 78.1829 61.2734 79.1118L65.1416 81.7134C76.1281 89.1009 79.353 104.196 72.3447 115.428C65.3363 126.66 50.7481 129.777 39.7617 122.389L22.9033 111.053C30.7971 110.601 37.0635 103.814 37.0635 95.5063C37.0634 86.9064 30.3477 79.9351 22.0635 79.9351C16.5019 79.9352 11.6468 83.077 9.05664 87.7446C9.16334 83.4725 10.3618 79.1903 12.7529 75.3579C12.8607 75.1851 12.9706 75.0141 13.082 74.8452C13.6869 73.9285 14.0635 72.8703 14.0635 71.772V24.7241C14.0635 21.9628 16.3022 19.7243 19.0635 19.7241H54.0635Z"/>
</mask>
<path d="M54.0635 19.7241C56.8249 19.7241 59.0635 21.9627 59.0635 24.7241V74.9624C59.0635 76.627 59.8922 78.1829 61.2734 79.1118L65.1416 81.7134C76.1281 89.1009 79.353 104.196 72.3447 115.428C65.3363 126.66 50.7481 129.777 39.7617 122.389L22.9033 111.053C30.7971 110.601 37.0635 103.814 37.0635 95.5063C37.0634 86.9064 30.3477 79.9351 22.0635 79.9351C16.5019 79.9352 11.6468 83.077 9.05664 87.7446C9.16334 83.4725 10.3618 79.1903 12.7529 75.3579C12.8607 75.1851 12.9706 75.0141 13.082 74.8452C13.6869 73.9285 14.0635 72.8703 14.0635 71.772V24.7241C14.0635 21.9628 16.3022 19.7243 19.0635 19.7241H54.0635Z" fill="#7789B8"/>
<path d="M59.0635 24.7241L60.0635 24.7241V24.7241L59.0635 24.7241ZM61.2734 79.1118L60.7154 79.9416L60.7154 79.9416L61.2734 79.1118ZM65.1416 81.7134L64.5835 82.5432L64.5836 82.5432L65.1416 81.7134ZM72.3447 115.428L73.1931 115.958L73.1931 115.958L72.3447 115.428ZM39.7617 122.389L39.2037 123.219L39.2037 123.219L39.7617 122.389ZM22.9033 111.053L22.8461 110.055L19.8792 110.225L22.3453 111.883L22.9033 111.053ZM37.0635 95.5063L38.0635 95.5063L38.0635 95.5063L37.0635 95.5063ZM22.0635 79.9351L22.0635 78.9351L22.0635 78.9351L22.0635 79.9351ZM9.05664 87.7446L8.05695 87.7197L9.93104 88.2298L9.05664 87.7446ZM12.7529 75.3579L11.9045 74.8286L11.9045 74.8286L12.7529 75.3579ZM13.082 74.8452L12.2474 74.2945L12.2473 74.2945L13.082 74.8452ZM14.0635 71.772L15.0635 71.772V71.772H14.0635ZM19.0635 19.7241L19.0635 18.7241L19.0634 18.7241L19.0635 19.7241ZM54.0635 19.7241V20.7241C56.2726 20.7241 58.0635 22.515 58.0635 24.7241L59.0635 24.7241L60.0635 24.7241C60.0635 21.4104 57.3772 18.7241 54.0635 18.7241V19.7241ZM59.0635 24.7241H58.0635V74.9624H59.0635H60.0635V24.7241H59.0635ZM59.0635 74.9624H58.0635C58.0635 76.9599 59.0579 78.8269 60.7154 79.9416L61.2734 79.1118L61.8315 78.282C60.7265 77.5388 60.0635 76.294 60.0635 74.9624H59.0635ZM61.2734 79.1118L60.7154 79.9416L64.5835 82.5432L65.1416 81.7134L65.6997 80.8836L61.8315 78.282L61.2734 79.1118ZM65.1416 81.7134L64.5836 82.5432C75.1228 89.6299 78.2193 104.124 71.4963 114.899L72.3447 115.428L73.1931 115.958C80.4867 104.268 77.1334 88.5718 65.6996 80.8835L65.1416 81.7134ZM72.3447 115.428L71.4963 114.899C64.7874 125.651 50.8367 128.631 40.3197 121.559L39.7617 122.389L39.2037 123.219C50.6595 130.922 65.8853 127.669 73.1931 115.958L72.3447 115.428ZM39.7617 122.389L40.3197 121.559L23.4613 110.223L22.9033 111.053L22.3453 111.883L39.2037 123.219L39.7617 122.389ZM22.9033 111.053L22.9605 112.052C31.4125 111.568 38.0635 104.314 38.0635 95.5063H37.0635H36.0635C36.0635 103.313 30.1817 109.635 22.8461 110.055L22.9033 111.053ZM37.0635 95.5063L38.0635 95.5063C38.0634 86.3896 30.9349 78.9351 22.0635 78.9351V79.9351V80.9351C29.7605 80.9351 36.0634 87.4231 36.0635 95.5064L37.0635 95.5063ZM22.0635 79.9351L22.0635 78.9351C16.1112 78.9352 10.9351 82.2986 8.18225 87.2594L9.05664 87.7446L9.93104 88.2298C12.3585 83.8553 16.8925 80.9352 22.0635 80.9351L22.0635 79.9351ZM9.05664 87.7446L10.0563 87.7696C10.1588 83.668 11.309 79.5614 13.6013 75.8872L12.7529 75.3579L11.9045 74.8286C9.41465 78.8193 8.16791 83.277 8.05695 87.7197L9.05664 87.7446ZM12.7529 75.3579L13.6013 75.8873C13.7045 75.7219 13.8098 75.558 13.9167 75.3959L13.082 74.8452L12.2473 74.2945C12.1314 74.4702 12.017 74.6483 11.9045 74.8286L12.7529 75.3579ZM13.082 74.8452L13.9167 75.396C14.6087 74.3472 15.0635 73.1006 15.0635 71.772L14.0635 71.772L13.0635 71.772C13.0635 72.6399 12.7651 73.5098 12.2474 74.2945L13.082 74.8452ZM14.0635 71.772H15.0635V24.7241H14.0635H13.0635V71.772H14.0635ZM14.0635 24.7241H15.0635C15.0635 22.5152 16.8545 20.7243 19.0636 20.7241L19.0635 19.7241L19.0634 18.7241C15.75 18.7244 13.0635 21.4105 13.0635 24.7241H14.0635ZM19.0635 19.7241V20.7241H54.0635V19.7241V18.7241H19.0635V19.7241Z" fill="white" mask="url(#path-4-inside-1_4741_44)"/>
<rect x="15.0638" y="30.2006" width="44" height="2" fill="white"/>
<rect x="15.0638" y="33.2006" width="44" height="2" fill="white"/>
<path d="M18.1441 41.3321C18.2028 41.3427 18.2748 41.3534 18.3601 41.3641C18.4455 41.3694 18.5255 41.3721 18.6001 41.3721C18.7815 41.3721 18.9468 41.3454 19.0961 41.2921C19.2508 41.2387 19.3815 41.1561 19.4881 41.0441C19.6001 40.9321 19.6855 40.7881 19.7441 40.6121C19.8081 40.4307 19.8401 40.2147 19.8401 39.9641C19.8401 39.4841 19.7281 39.1241 19.5041 38.8841C19.2801 38.6387 18.9815 38.5161 18.6081 38.5161C18.5335 38.5161 18.4561 38.5187 18.3761 38.5241C18.3015 38.5294 18.2241 38.5374 18.1441 38.5481V41.3321ZM18.5921 42.5001C18.5015 42.5001 18.3975 42.4974 18.2801 42.4921C18.1628 42.4867 18.0401 42.4761 17.9121 42.4601C17.7895 42.4441 17.6641 42.4227 17.5361 42.3961C17.4135 42.3747 17.2988 42.3427 17.1921 42.3001C16.8988 42.1881 16.7521 41.9934 16.7521 41.7161V37.9801C16.7521 37.8681 16.7815 37.7827 16.8401 37.7241C16.9041 37.6601 16.9895 37.6094 17.0961 37.5721C17.3255 37.4974 17.5681 37.4494 17.8241 37.4281C18.0801 37.4014 18.3095 37.3881 18.5121 37.3881C18.9281 37.3881 19.3041 37.4387 19.6401 37.5401C19.9815 37.6414 20.2721 37.7987 20.5121 38.0121C20.7575 38.2201 20.9468 38.4841 21.0801 38.8041C21.2135 39.1241 21.2801 39.5027 21.2801 39.9401C21.2801 40.3667 21.2161 40.7401 21.0881 41.0601C20.9601 41.3747 20.7761 41.6414 20.5361 41.8601C20.3015 42.0734 20.0188 42.2334 19.6881 42.3401C19.3575 42.4467 18.9921 42.5001 18.5921 42.5001ZM30.5362 40.5801C30.5362 40.8681 30.4856 41.1321 30.3842 41.3721C30.2882 41.6067 30.1469 41.8094 29.9602 41.9801C29.7736 42.1454 29.5469 42.2734 29.2802 42.3641C29.0136 42.4547 28.7122 42.5001 28.3762 42.5001C28.0402 42.5001 27.7389 42.4547 27.4722 42.3641C27.2056 42.2734 26.9789 42.1454 26.7922 41.9801C26.6056 41.8094 26.4616 41.6067 26.3602 41.3721C26.2642 41.1321 26.2162 40.8681 26.2162 40.5801V37.5241C26.2749 37.5134 26.3682 37.5001 26.4962 37.4841C26.6242 37.4627 26.7469 37.4521 26.8642 37.4521C26.9869 37.4521 27.0936 37.4627 27.1842 37.4841C27.2802 37.5001 27.3602 37.5321 27.4242 37.5801C27.4882 37.6281 27.5362 37.6947 27.5682 37.7801C27.6002 37.8654 27.6162 37.9774 27.6162 38.1161V40.5561C27.6162 40.8121 27.6856 41.0121 27.8242 41.1561C27.9682 41.3001 28.1522 41.3721 28.3762 41.3721C28.6056 41.3721 28.7896 41.3001 28.9282 41.1561C29.0669 41.0121 29.1362 40.8121 29.1362 40.5561V37.5241C29.1949 37.5134 29.2882 37.5001 29.4162 37.4841C29.5442 37.4627 29.6669 37.4521 29.7842 37.4521C29.9069 37.4521 30.0136 37.4627 30.1042 37.4841C30.2002 37.5001 30.2802 37.5321 30.3442 37.5801C30.4082 37.6281 30.4562 37.6947 30.4882 37.7801C30.5202 37.8654 30.5362 37.9774 30.5362 38.1161V40.5801ZM38.1847 38.5001C37.7741 38.5001 37.4594 38.6254 37.2407 38.8761C37.0221 39.1267 36.9127 39.4814 36.9127 39.9401C36.9127 40.4041 37.0327 40.7614 37.2727 41.0121C37.5181 41.2627 37.8461 41.3881 38.2567 41.3881C38.4754 41.3881 38.6594 41.3587 38.8087 41.3001C38.9634 41.2414 39.1101 41.1747 39.2487 41.1001C39.3394 41.1747 39.4087 41.2654 39.4567 41.3721C39.5101 41.4734 39.5367 41.5934 39.5367 41.7321C39.5367 41.9507 39.4141 42.1374 39.1687 42.2921C38.9287 42.4414 38.5607 42.5161 38.0647 42.5161C37.7074 42.5161 37.3714 42.4654 37.0567 42.3641C36.7421 42.2627 36.4674 42.1081 36.2327 41.9001C35.9981 41.6867 35.8114 41.4201 35.6727 41.1001C35.5394 40.7747 35.4727 40.3881 35.4727 39.9401C35.4727 39.5241 35.5367 39.1587 35.6647 38.8441C35.7981 38.5241 35.9767 38.2547 36.2007 38.0361C36.4301 37.8174 36.6967 37.6521 37.0007 37.5401C37.3047 37.4281 37.6301 37.3721 37.9767 37.3721C38.4674 37.3721 38.8461 37.4521 39.1127 37.6121C39.3847 37.7721 39.5207 37.9774 39.5207 38.2281C39.5207 38.3667 39.4861 38.4867 39.4167 38.5881C39.3474 38.6894 39.2674 38.7694 39.1767 38.8281C39.0381 38.7374 38.8887 38.6601 38.7287 38.5961C38.5741 38.5321 38.3927 38.5001 38.1847 38.5001ZM45.8191 40.4441C45.5844 40.3641 45.3711 40.2841 45.1791 40.2041C44.9871 40.1187 44.8217 40.0174 44.6831 39.9001C44.5444 39.7827 44.4351 39.6441 44.3551 39.4841C44.2804 39.3187 44.2431 39.1187 44.2431 38.8841C44.2431 38.4307 44.4164 38.0681 44.7631 37.7961C45.1151 37.5241 45.6057 37.3881 46.2351 37.3881C46.4644 37.3881 46.6777 37.4041 46.8751 37.4361C47.0724 37.4681 47.2404 37.5187 47.3791 37.5881C47.5231 37.6521 47.6351 37.7374 47.7151 37.8441C47.7951 37.9454 47.8351 38.0654 47.8351 38.2041C47.8351 38.3427 47.8031 38.4627 47.7391 38.5641C47.6751 38.6601 47.5977 38.7427 47.5071 38.8121C47.3897 38.7374 47.2324 38.6734 47.0351 38.6201C46.8377 38.5614 46.6217 38.5321 46.3871 38.5321C46.1471 38.5321 45.9711 38.5667 45.8591 38.6361C45.7471 38.7001 45.6911 38.7827 45.6911 38.8841C45.6911 38.9641 45.7257 39.0307 45.7951 39.0841C45.8644 39.1321 45.9684 39.1774 46.1071 39.2201L46.5311 39.3561C47.0324 39.5161 47.4164 39.7214 47.6831 39.9721C47.9551 40.2174 48.0911 40.5534 48.0911 40.9801C48.0911 41.4334 47.9124 41.8014 47.5551 42.0841C47.1977 42.3614 46.6724 42.5001 45.9791 42.5001C45.7337 42.5001 45.5044 42.4787 45.2911 42.4361C45.0831 42.3987 44.8991 42.3427 44.7391 42.2681C44.5844 42.1881 44.4617 42.0921 44.3711 41.9801C44.2857 41.8627 44.2431 41.7294 44.2431 41.5801C44.2431 41.4254 44.2884 41.2947 44.3791 41.1881C44.4697 41.0761 44.5684 40.9907 44.6751 40.9321C44.8244 41.0494 45.0057 41.1507 45.2191 41.2361C45.4377 41.3214 45.6751 41.3641 45.9311 41.3641C46.1924 41.3641 46.3764 41.3241 46.4831 41.2441C46.5897 41.1641 46.6431 41.0707 46.6431 40.9641C46.6431 40.8574 46.6004 40.7774 46.5151 40.7241C46.4297 40.6654 46.3097 40.6094 46.1551 40.5561L45.8191 40.4441ZM54.3853 40.4441C54.1506 40.3641 53.9373 40.2841 53.7453 40.2041C53.5533 40.1187 53.388 40.0174 53.2493 39.9001C53.1106 39.7827 53.0013 39.6441 52.9213 39.4841C52.8466 39.3187 52.8093 39.1187 52.8093 38.8841C52.8093 38.4307 52.9826 38.0681 53.3293 37.7961C53.6813 37.5241 54.172 37.3881 54.8013 37.3881C55.0306 37.3881 55.244 37.4041 55.4413 37.4361C55.6386 37.4681 55.8066 37.5187 55.9453 37.5881C56.0893 37.6521 56.2013 37.7374 56.2813 37.8441C56.3613 37.9454 56.4013 38.0654 56.4013 38.2041C56.4013 38.3427 56.3693 38.4627 56.3053 38.5641C56.2413 38.6601 56.164 38.7427 56.0733 38.8121C55.956 38.7374 55.7986 38.6734 55.6013 38.6201C55.404 38.5614 55.188 38.5321 54.9533 38.5321C54.7133 38.5321 54.5373 38.5667 54.4253 38.6361C54.3133 38.7001 54.2573 38.7827 54.2573 38.8841C54.2573 38.9641 54.292 39.0307 54.3613 39.0841C54.4306 39.1321 54.5346 39.1774 54.6733 39.2201L55.0973 39.3561C55.5986 39.5161 55.9826 39.7214 56.2493 39.9721C56.5213 40.2174 56.6573 40.5534 56.6573 40.9801C56.6573 41.4334 56.4786 41.8014 56.1213 42.0841C55.764 42.3614 55.2386 42.5001 54.5453 42.5001C54.3 42.5001 54.0706 42.4787 53.8573 42.4361C53.6493 42.3987 53.4653 42.3427 53.3053 42.2681C53.1506 42.1881 53.028 42.0921 52.9373 41.9801C52.852 41.8627 52.8093 41.7294 52.8093 41.5801C52.8093 41.4254 52.8546 41.2947 52.9453 41.1881C53.036 41.0761 53.1346 40.9907 53.2413 40.9321C53.3906 41.0494 53.572 41.1507 53.7853 41.2361C54.004 41.3214 54.2413 41.3641 54.4973 41.3641C54.7586 41.3641 54.9426 41.3241 55.0493 41.2441C55.156 41.1641 55.2093 41.0707 55.2093 40.9641C55.2093 40.8574 55.1666 40.7774 55.0813 40.7241C54.996 40.6654 54.876 40.6094 54.7213 40.5561L54.3853 40.4441Z" fill="white"/>
<rect x="12.0638" y="15.5717" width="50" height="12.4574" rx="3" fill="#7789B8"/>
<path d="M43.0638 123.536L71.0638 89.2778" stroke="white" stroke-linejoin="round" stroke-dasharray="2 2"/>
<path d="M88.2178 78.2815L50.9181 61.0329L83.9563 36.1245L88.2178 78.2815Z" stroke="#7789B8" stroke-width="4"/>
<ellipse cx="84.5638" cy="35.8149" rx="7.5" ry="7.78585" fill="#7789B8"/>
<ellipse cx="88.5638" cy="78.3775" rx="7.5" ry="7.78585" fill="#7789B8"/>
<ellipse cx="48.5638" cy="60.7297" rx="7.5" ry="7.78585" fill="white"/>
<path d="M47.6119 57.0963L58.0639 61.7678L58.0638 66.4393L46.0641 60.7055L47.6119 57.0963Z" fill="white"/>
<path d="M48.0638 60.7296L58.0638 52.9438L58.0638 58.1343L50.4192 64.4153L48.0638 60.7296Z" fill="white"/>
</svg>
